# AST/ASF file generated using VICON BodyLanguage
# -----------------------------------------------
:version 1.10
:name VICON
:units
  mass 1.0
  length 0.45
  angle deg
:documentation
   .ast/.asf automatically generated from VICON data using
   VICON BodyBuilder and BodyLanguage model FoxedUp or BRILLIANT.MOD
:root
   order TX TY TZ RX RY RZ
   axis XYZ
   position 0 0 0  
   orientation 0 0 0 
:bonedata
  begin
     id 1 
     name lhipjoint
     direction 0.643822 -0.745931 0.170529 
     length 2.62041 
     axis 0 0 0  XYZ
  end
  begin
     id 2 
     name lfemur
     direction 0.34202 -0.939693 0  
     length 7.92179  
     axis 0 0 20  XYZ
    dof rx ry rz
    limits (-160.0 20.0)
           (-70.0 70.0)
           (-60.0 70.0)
  end
  begin
     id 3 
     name ltibia
     direction 0.34202 -0.939693 0   
     length 8.16326   
     axis 0 0 20   XYZ
    dof rx
    limits (-10.0 170.0)
  end
  begin
     id 4 
     name lfoot
     direction 0.0837341 -0.230058 0.969568   
     length 1.94455   
     axis -90 7.62852e-016 20   XYZ
    dof rx rz
    limits (-45.0 90.0)
           (-70.0 20.0)
  end
  begin
     id 5 
     name ltoes
     direction 1.5356e-011 -4.21695e-011 1   
     length 0.978804   
     axis -90 7.62852e-016 20   XYZ
    dof rx
    limits (-90.0 20.0)
  end
  begin
     id 6 
     name rhipjoint
     direction -0.656883 -0.73503 0.168037   
     length 2.65927  
     axis 0 0 0  XYZ 
  end
  begin
     id 7 
     name rfemur
     direction -0.34202 -0.939693 0   
     length 7.58746   
     axis 0 0 -20   XYZ
    dof rx ry rz
    limits (-160.0 20.0)
           (-70.0 70.0)
           (-70.0 60.0)
  end
  begin
     id 8 
     name rtibia
     direction -0.342117 -0.939657 0   
     length 8.27303   
     axis 0 0 -20   XYZ
    dof rx
    limits (-10.0 170.0)
 end
 begin
     id 9 
     name rfoot
     direction -0.0685862 -0.188439 0.979687   
     length 2.13088  
     axis -90 -7.62852e-016 -20   XYZ
    dof rx rz
    limits (-45.0 90.0)
           (-20.0 70.0)
  end
  begin
     id 10 
     name rtoes
     direction -1.53538e-011 -4.21514e-011 1   
     length 1.07326   
     axis -90 -7.62852e-016 -20   XYZ
    dof rx
    limits (-90.0 20.0)
  end
  begin
     id 11 
     name lowerback
     direction -0.0358974 0.997216 0.065354   
     length 1.87174   
     axis 0 0 0   XYZ
    dof rx ry rz
    limits (-20.0 45.0)
           (-30.0 30.0)
           (-30.0 30.0)
  end
  begin
     id 12 
     name upperback
     direction 0.0202028 0.998565 0.0495864   
     length 1.8684   
     axis 0 0 0   XYZ
    dof rx ry rz
    limits (-20.0 45.0)
           (-30.0 30.0)
           (-30.0 30.0)
  end
  begin
     id 13 
     name thorax
     direction 0.0366367 0.999163 0.0182199   
     length 1.87747   
     axis 0 0 0   XYZ
    dof rx ry rz
    limits (-20.0 45.0)
           (-30.0 30.0)
           (-30.0 30.0)
  end
  begin
     id 14 
     name lowerneck
     direction 0.0284381 0.999578 -0.00598196   
     length 1.84583   
     axis 0 0 0   XYZ
    dof rx ry rz
    limits (-20.0 45.0)
           (-30.0 30.0)
           (-30.0 30.0)
  end
  begin
     id 15 
     name upperneck
     direction -0.0888142 0.993333 -0.0734973   
     length 1.84467   
     axis 0 0 0   XYZ
    dof rx ry rz
    limits (-20.0 45.0)
           (-30.0 30.0)
           (-30.0 30.0)
  end
  begin
     id 16
     name head
     direction -0.0296474 0.999102 -0.0302696  
     length 1.86566  
     axis 0 0 0   XYZ
    dof rx ry rz
    limits (-20.0 45.0)
           (-30.0 30.0)
           (-30.0 30.0)
  end
  begin
     id 17 
     name lclavicle
     direction 0.933925 0.35714 -0.0153523  
     length 3.93442  
     axis 0 0 0   XYZ
    dof ry rz
    limits (-20.0 10.0)
           (0.0 20.0)
  end
  begin
     id 18 
     name lhumerus
     direction 1 -4.48967e-011 2.12044e-027   
     length 5.78174   
     axis 180 -30 -90   XYZ
    dof rx ry rz
    limits (-60.0 90.0)
           (-90.0 90.0)
           (-90.0 90.0)
  end
  begin
     id 19
     name lradius
     direction 1 -4.48972e-011 6.45701e-027   
     length 3.53992   
     axis 180 -30 -90   XYZ
    dof rx
    limits (-10.0 170.0)
  end
  begin
     id 20
     name lwrist
     direction 1 -4.48981e-011 1.70244e-026   
     length 1.76996   
     axis -1.1226e-014 90 90   XYZ
    dof ry
    limits (-180.0 0.0)
 end
  begin
     id 21 
     name lhand
     direction 1 -4.4879e-011 3.40615e-026   
     length 0.550243   
     axis -2.17265e-014 90 90   XYZ
    dof rx rz
    limits (-90.0 90.0)
           (-45.0 45.0)
  end
  begin
     id 22 
     name lfingers
     direction 1 -4.49029e-011 6.80911e-026   
     length 0.44362   
     axis -4.34526e-014 90 90   XYZ
    dof rx
    limits (0.0 90.0)
  end
  begin
     id 23
     name lthumb
     direction 0.707107 -6.34923e-011 0.707107   
     length 0.636952   
     axis -90 45 -1.62303e-014   XYZ
    dof rx rz
    limits (-45.0 45.0)
           (-45.0 45.0)
  end
  begin
     id 24 
     name rclavicle
     direction -0.950832 0.305106 0.0531883   
     length 3.96125  
     axis 0 0 0   XYZ 
    dof ry rz
    limits (-10.0 20.0)
           (-20.0 0.0)
  end
  begin
     id 25 
     name rhumerus
     direction -1 -4.48961e-011 -6.07392e-030  
     length 5.79352   
     axis 180 30 90   XYZ
    dof rx ry rz
    limits (-90.0 60.0)
           (-90.0 90.0)
           (-90.0 90.0)
  end
  begin
     id 26 
     name rradius
     direction -1 -4.48964e-011 5.97548e-027   
     length 3.37081   
     axis 180 30 90   XYZ
    dof rx
    limits (-10.0 170.0)
  end
  begin
     id 27 
     name rwrist
     direction -1 -4.49021e-011 1.7023e-026   
     length 1.68541   
     axis -1.1226e-014 -90 -90   XYZ
    dof ry
    limits (-180.0 0.0)
  end
  begin
     id 28
     name rhand
     direction -1 -4.48867e-011 3.40563e-026   
     length 0.679827   
     axis -2.17265e-014 -90 -90   XYZ
    dof rx rz
    limits (-90.0 90.0)
           (-45.0 45.0)
  end
  begin
     id 29
     name rfingers
     direction -1 -4.49024e-011 6.80917e-026   
     length 0.548094   
     axis -4.34526e-014 -90 -90   XYZ
    dof rx
    limits (0.0 90.0)
  end
  begin
     id 30
     name rthumb
     direction -0.707107 -6.3488e-011 0.707107   
     length 0.786956   
     axis -90 -45 1.62303e-014   XYZ
    dof rx rz
    limits (-45.0 45.0)
           (-45.0 45.0)
  end
:hierarchy
  begin
    root lhipjoint rhipjoint lowerback
    lhipjoint lfemur
    lfemur ltibia
    ltibia lfoot
    lfoot ltoes
    rhipjoint rfemur
    rfemur rtibia
    rtibia rfoot
    rfoot rtoes
    lowerback upperback
    upperback thorax
    thorax lowerneck lclavicle rclavicle
    lowerneck upperneck
    upperneck head
    lclavicle lhumerus
    lhumerus lradius
    lradius lwrist
    lwrist lhand lthumb
    lhand lfingers
    rclavicle rhumerus
    rhumerus rradius
    rradius rwrist
    rwrist rhand rthumb
    rhand rfingers
  end

#!OML:ASF H:\Terrain\Patient Classification 1\PaulMetrics\Match1Take2\PaulMetrics.ASF
:FULLY-SPECIFIED
:DEGREES
1
root 4.3267 18.2345 -10.0726 -165.937 28.8151 175.903
lowerback -7.37536 -2.18518 -7.08201
upperback -6.11979 -2.11942 1.62897
thorax -1.91678 -0.621553 5.54705
lowerneck -4.48019 6.7803 4.38363
upperneck 10.3513 9.8756 -7.39347
head 4.41563 4.78062 -2.41793
rclavicle -2.16768e-014 -1.98785e-014
rhumerus -58.0064 16.6429 -92.1386
rradius 44.293
rwrist -9.79801
rhand -10.4687 -32.7791
rfingers 7.12502
rthumb 15.5322 -62.1753
lclavicle -2.16768e-014 -1.98785e-014
lhumerus -42.9581 -16.8067 80.9283
lradius 77.8869
lwrist 10.8003
lhand -22.8781 -8.9224
lfingers 7.12502
lthumb 3.5608 21.0276
rfemur -40.6653 4.52966 13.1036
rtibia 21.5419
rfoot -11.2444 -22.8228
rtoes -3.00998
lfemur -15.008 0.169559 -27.5541
ltibia 23.3552
lfoot -21.8804 -0.137063
ltoes -21.5155
2
root 4.39763 18.2252 -10.1953 -166.054 28.9744 175.831
lowerback -7.33597 -2.15785 -7.04611
upperback -6.1516 -2.08664 1.65431
thorax -1.9769 -0.601746 5.55712
lowerneck -4.43836 6.79609 4.01515
upperneck 10.5838 9.91252 -7.04316
head 4.44622 4.80276 -2.24977
rclavicle 1.90616e-014 -3.18055e-014
rhumerus -58.0799 16.6941 -92.0212
rradius 44.3715
rwrist -9.86015
rhand -10.5623 -32.1957
rfingers 7.12502
rthumb 15.4421 -61.5988
lclavicle 1.90616e-014 -3.18055e-014
lhumerus -43.0686 -16.9658 81.2292
lradius 78.3686
lwrist 10.9068
lhand -22.9597 -8.8645
lfingers 7.12502
lthumb 3.48198 21.0868
rfemur -40.0434 5.93983 11.9417
rtibia 18.5109
rfoot -11.4993 -23.6876
rtoes -4.43303
lfemur -14.0401 0.136492 -27.6574
ltibia 22.615
lfoot -21.9626 0.309893
ltoes -21.4174
3
root 4.47244 18.2098 -10.3167 -165.932 29.1007 175.69
lowerback -7.70779 -2.17643 -7.02359
upperback -6.15076 -2.0763 1.60137
thorax -1.77379 -0.602358 5.47959
lowerneck -4.29761 6.80726 3.91272
upperneck 10.4885 9.92236 -6.9664
head 4.38534 4.81216 -2.21681
rclavicle 9.85227e-015 3.97569e-015
rhumerus -58.0878 16.5753 -91.9384
rradius 44.5086
rwrist -9.89551
rhand -10.8806 -31.9406
rfingers 7.12502
rthumb 15.1355 -61.3671
lclavicle 9.85227e-015 3.97569e-015
lhumerus -42.982 -16.9976 81.3428
lradius 78.8275
lwrist 10.8057
lhand -22.6126 -8.33952
lfingers 7.12502
lthumb 3.81726 21.606
rfemur -39.8387 7.531 10.4446
rtibia 15.7208
rfoot -11.9284 -24.7304
rtoes -6.65422
lfemur -13.403 -0.547759 -27.7679
ltibia 21.9224
lfoot -22.3347 1.15836
ltoes -21.945
4
root 4.54827 18.1963 -10.4357 -165.76 29.0256 175.52
lowerback -8.065 -2.26977 -7.07547
upperback -6.1612 -2.16121 1.57239
thorax -1.57462 -0.646797 5.46291
lowerneck -4.13689 6.76048 3.82882
upperneck 10.2151 9.84004 -6.95369
head 4.26592 4.77489 -2.21583
rclavicle 1.59556e-014 5.1684e-015
rhumerus -57.9425 16.3277 -91.764
rradius 44.5964
rwrist -9.77131
rhand -11.1362 -32.1439
rfingers 7.12502
rthumb 14.8893 -61.5889
lclavicle 1.59556e-014 5.1684e-015
lhumerus -42.9062 -16.8716 81.4202
lradius 79.257
lwrist 10.4873
lhand -22.2642 -8.30074
lfingers 7.12502
lthumb 4.15369 21.6385
rfemur -39.4546 9.56862 8.46099
rtibia 12.5121
rfoot -12.2653 -26.328
rtoes -5.74651
lfemur -12.8918 -1.08881 -27.8766
ltibia 21.3411
lfoot -22.651 1.89645
ltoes -24.0097
5
root 4.62414 18.1777 -10.5474 -165.679 28.8653 175.319
lowerback -8.03966 -2.37219 -7.26369
upperback -6.28681 -2.27864 1.591
thorax -1.69787 -0.684886 5.58266
lowerneck -4.00143 6.78786 3.95778
upperneck 10.3071 9.90178 -7.07726
head 4.28708 4.80932 -2.27269
rclavicle 6.72948e-014 1.03368e-014
rhumerus -57.884 16.2207 -91.667
rradius 44.6322
rwrist -9.70649
rhand -11.227 -32.3487
rfingers 7.12502
rthumb 14.8018 -61.8001
lclavicle 6.72948e-014 1.03368e-014
lhumerus -43.0608 -16.9469 81.6621
lradius 79.6618
lwrist 10.3281
lhand -22.244 -8.58484
lfingers 7.12502
lthumb 4.17316 21.354
rfemur -38.347 9.23257 8.36721
rtibia 8.88064
rfoot -12.2831 -25.2926
rtoes -2.65825
lfemur -12.3503 -1.14234 -28.0482
ltibia 20.9226
lfoot -22.6818 2.52856
ltoes -26.8373
